<svg width="20" height="20" viewBox="0 0 20 20" fill="none" xmlns="http://www.w3.org/2000/svg">
<path d="M8.24001 0.319824C4.11329 0.319824 0.76001 3.67311 0.76001 7.79982C0.76001 11.9265 4.11329 15.2798 8.24001 15.2798C9.87282 15.2798 11.3819 14.7539 12.6125 13.8636L18.4013 19.6386L19.6388 18.4011L13.9188 12.6673C15.0428 11.3576 15.72 9.65779 15.72 7.79982C15.72 3.67311 12.3667 0.319824 8.24001 0.319824ZM8.24001 1.19982C11.8906 1.19982 14.84 4.1492 14.84 7.79982C14.84 11.4504 11.8906 14.3998 8.24001 14.3998C4.58938 14.3998 1.64001 11.4504 1.64001 7.79982C1.64001 4.1492 4.58938 1.19982 8.24001 1.19982Z" fill="#272727"/>
</svg>
